<svg preserveAspectRatio="none" width="100%" height="100%" overflow="visible" style="display: block;" viewBox="0 0 120 120" fill="none" xmlns="http://www.w3.org/2000/svg">
<g id="arena-image">
<rect width="120" height="120" rx="60" fill="var(--fill-0, #142F02)"/>
<g id="Vector">
<path d="M81.4856 40.2744C77.5339 38.4623 73.2964 37.1272 68.8657 36.3625C68.785 36.3478 68.7044 36.3847 68.6629 36.4584C68.1179 37.4272 67.5142 38.691 67.0915 39.6843C62.326 38.9713 57.5851 38.9713 52.9173 39.6843C52.4945 38.6689 51.8689 37.4272 51.3215 36.4584C51.2799 36.3871 51.1993 36.3503 51.1186 36.3625C46.6904 37.1248 42.4529 38.4599 38.4987 40.2744C38.4645 40.2892 38.4352 40.3138 38.4157 40.3457C30.3779 52.347 28.176 64.0532 29.2562 75.6143C29.2611 75.6709 29.2929 75.725 29.3369 75.7594C34.64 79.6516 39.7769 82.0145 44.8185 83.5807C44.8992 83.6053 44.9846 83.5758 45.036 83.5094C46.2286 81.8817 47.2917 80.1655 48.2031 78.3607C48.2569 78.255 48.2056 78.1296 48.0957 78.0878C46.4094 77.4485 44.8038 76.6691 43.2593 75.784C43.1371 75.7127 43.1274 75.538 43.2397 75.4544C43.5648 75.211 43.8899 74.9578 44.2002 74.7021C44.2564 74.6554 44.3346 74.6455 44.4006 74.675C54.5473 79.3049 65.5323 79.3049 75.5593 74.675C75.6253 74.6431 75.7036 74.6529 75.7621 74.6996C76.0726 74.9553 76.3976 75.211 76.7251 75.4544C76.8375 75.538 76.8301 75.7127 76.708 75.784C75.1635 76.6863 73.5578 77.4485 71.8692 78.0854C71.7592 78.1272 71.7103 78.255 71.7641 78.3607C72.6952 80.163 73.7582 81.8792 74.9288 83.5069C74.9777 83.5758 75.0656 83.6053 75.1463 83.5807C80.2123 82.0145 85.3493 79.6516 90.6524 75.7594C90.6988 75.725 90.7282 75.6733 90.733 75.6168C92.0258 62.2509 88.5678 50.6406 81.5662 40.3482C81.5491 40.3138 81.5199 40.2892 81.4856 40.2744ZM49.7184 68.5748C46.6635 68.5748 44.1464 65.7719 44.1464 62.3296C44.1464 58.8873 46.6147 56.0843 49.7184 56.0843C52.8464 56.0843 55.3392 58.9119 55.2903 62.3296C55.2903 65.7719 52.822 68.5748 49.7184 68.5748ZM70.3198 68.5748C67.265 68.5748 64.7479 65.7719 64.7479 62.3296C64.7479 58.8873 67.2161 56.0843 70.3198 56.0843C73.4479 56.0843 75.9406 58.9119 75.8917 62.3296C75.8917 65.7719 73.4479 68.5748 70.3198 68.5748Z" fill="var(--fill-0, #75E21C)"/>
</g>
</g>
</svg>
