<svg xmlns="http://www.w3.org/2000/svg" viewBox="0 0 32 32">
  <rect width="32" height="32" rx="6" fill="#111"/>
  <g transform="translate(1 2) scale(0.79)">
    <path d="M37.99 0.49c-.01.28-.05.96-.07 1.52-.03.57-.08 1.53-.11 2.15-.03.62-.06 1.22-.07 1.34-.03.12-.07.82-.11 1.55-.04.73-.09 1.79-.12 2.35-.03.56-.07 1.5-.09 2.08-.02.58-.05 1.06-.06 1.06-.01.01-.21-.1-.45-.26-.74-.47-1.08-.68-1.25-.78l-.15-.09-.13.24c-.33.6-.87 1.6-1.12 2.07-.15.29-.4.75-.55 1.03-.15.28-.41.76-.57 1.08-.17.31-.39.73-.49.92-.1.2-.36.66-.56 1.04-.2.38-.52.96-.69 1.29-.18.33-.41.76-.58 1.06-.17.33-.4.76-.5.94-.1.19-.28.53-.41.78-.43.8-.81 1.51-1.15 2.17-.19.36-.48.9-.64 1.19-.16.3-.46.85-.66 1.23-.2.38-.44.83-.54 1.01-.1.17-.34.63-.54 1.01-.65 1.23-1.65 3.1-1.75 3.28-.09.16-.27.51-.48.92l-.2.38-1.72-.01-1.72-.01-.11-.27c-.3-.77-.95-2.39-1.17-2.92-.29-.72-.9-2.23-1.5-3.75-.24-.6-.51-1.27-.6-1.49-.09-.22-.17-.39-.18-.38-.02.02-.22.43-.45.93-.23.5-.49 1.06-.57 1.24l-.15.33-13.36-.02-.5-.71c-.28-.39-.65-.91-.83-1.16-.18-.25-.45-.63-.6-.87-.14-.21-.43-.6-.64-.87-.5-.68-.49-.66-.45-.79.02-.06.27-.73.55-1.49.28-.76.54-1.44.56-1.51.16-.44.43-1.16.63-1.68.08-.2.16-.43.19-.5.03-.07.08-.21.12-.3.03-.09.12-.34.2-.54.13-.37.38-1.04.71-1.92.23-.61.6-1.62 1.02-2.76.19-.5.41-1.1.5-1.34.09-.24.16-.44.16-.45 0-.02.33-.92.41-1.1.04-.08.12-.31.19-.5.07-.2.14-.41.17-.48.09-.24.21-.56.33-.91.07-.19.14-.36.15-.37.01-.01 4.46-.02 9.88-.01l9.86.01-.48.39c-.27.21-.58.46-.69.54-.11.08-.44.33-.72.55-.29.23-.58.45-.64.49-.07.04-.14.1-.16.13-.02.02-.16.12-.31.24-.3.23-.83.64-1.02.79-.07.05-.19.14-.26.2-.07.05-.27.2-.43.33-.17.13-.52.4-.81.6-.45.34-.86.67-1.68 1.32-.61.48-1.18.91-1.19.9-.01-.01.16-.55.38-1.22.21-.67.4-1.23.41-1.25.01-.04-.49-.05-4.4-.04-2.43 0-4.42.02-4.44.03-.01.01-.11.25-.21.54-.1.29-.3.81-.43 1.16-.13.35-.31.81-.39 1.02-.08.21-.27.71-.42 1.11-.52 1.41-.84 2.28-1.03 2.76-.1.27-.29.77-.42 1.12-.26.7-.87 2.35-1.19 3.19l-.2.53.11.15c.06.09.2.28.31.42l.2.26h7.72l.04-.08c.02-.04.25-.56.51-1.1.26-.54.61-1.29.79-1.66.36-.73.44-.89.69-1.44l.18-.38-.08-.07c-.14-.13-2.11-1.72-3.33-2.68-.84-.67-1.02-.81-1.12-.9l-.1-.08h10.88l.08.19c.04.1.14.36.21.56.07.21.41 1.14.76 2.09.35.94.71 1.93.81 2.21.29.8.22.78.56.18.31-.55 1.12-2.06 1.62-3.02.17-.32.48-.91.69-1.3.21-.39.51-.98.67-1.28.16-.3.33-.6.38-.69.05-.09.08-.17.08-.17 0-.02.42-.81.91-1.7.11-.2.18-.37.17-.38-.03-.03-.97-.42-1.51-.64-.23-.09-.43-.19-.43-.2-.01-.04.08-.1.96-.82.3-.21.6-.43.67-.49.07-.05.32-.22.54-.38.23-.16.52-.38.64-.49.23-.17.69-.5 1.11-.81.31-.18.32-.18.78-.52.55-.4.61-.44 1.23-.87.63-.44.94-.66 1.1-.78.12-.09.45-.33.76-.54.07-.05.59-.4 1.14-.8.71-.72.97-.9 1-.9.01 0 .01.22 0 .49z" fill="#f0f0e8"/>
  </g>
</svg>
