<svg preserveAspectRatio="none" width="100%" height="100%" overflow="visible" style="display: block;" viewBox="0 0 40 40" fill="none" xmlns="http://www.w3.org/2000/svg">
<g id="indicator">
<rect x="1" y="1" width="38" height="38" rx="19" fill="var(--fill-0, #222222)"/>
<rect x="1" y="1" width="38" height="38" rx="19" stroke="var(--stroke-0, #333333)" stroke-width="2"/>
<path id="Icon (Stroke)" d="M24.5366 18.9649C24.5366 18.6114 24.2601 18.3399 23.9507 18.3399H16.0486C15.7392 18.3399 15.4634 18.6115 15.4634 18.9649V25.8648C15.4634 26.2183 15.7392 26.4905 16.0486 26.4906H23.9507C24.2601 26.4906 24.5366 26.2183 24.5366 25.8648V18.9649ZM19.2683 23.1696V21.3587C19.2683 20.9419 19.5959 20.604 20 20.604C20.404 20.6041 20.7317 20.9419 20.7317 21.3587V23.1696C20.7317 23.5863 20.404 23.9242 20 23.9243C19.5959 23.9243 19.2683 23.5864 19.2683 23.1696ZM20 13.5094C18.2463 13.5094 16.8141 14.973 16.7817 16.8304H23.2176C23.1851 14.973 21.7536 13.5095 20 13.5094ZM26 25.8648C26 27.0294 25.09 28 23.9507 28H16.0486C14.9094 27.9999 14 27.0294 14 25.8648V18.9649C14 18.0648 14.5441 17.2831 15.3169 16.9734V16.8946C15.317 14.1956 17.3964 12 20 12C22.6036 12.0001 24.6822 14.1957 24.6824 16.8946V16.9727C25.4555 17.2822 26 18.0645 26 18.9649V25.8648Z" fill="var(--fill-0, #999999)"/>
</g>
</svg>
