<svg preserveAspectRatio="xMidYMid meet" viewBox="0 0 38 32" fill="none" xmlns="http://www.w3.org/2000/svg">
<g id="logo-mark">
<path d="M37.9874 0.490842C37.974 0.766501 37.9404 1.44893 37.9135 2.01369C37.8832 2.57846 37.8395 3.54662 37.8093 4.16517C37.7824 4.78373 37.7521 5.38883 37.742 5.50985C37.7319 5.63087 37.695 6.32675 37.658 7.05623C37.621 7.78572 37.5672 8.84466 37.537 9.40942C37.5101 9.97418 37.4664 10.9087 37.4429 11.4869C37.4193 12.0652 37.3925 12.5459 37.3824 12.5526C37.3723 12.5627 37.1706 12.4484 36.9319 12.2971C36.1891 11.8265 35.8462 11.6147 35.6815 11.5206L35.5269 11.4332L35.3958 11.6718C35.0664 12.2736 34.5319 13.2686 34.2798 13.746C34.1285 14.0317 33.8832 14.4923 33.7353 14.7713C33.584 15.047 33.3252 15.5311 33.1605 15.8471C32.9924 16.1597 32.7705 16.5766 32.6663 16.7715C32.5621 16.9665 32.31 17.4338 32.105 17.8137C31.9033 18.1935 31.5873 18.7751 31.4058 19.1079C31.2277 19.4407 30.9991 19.8643 30.9016 20.0492C30.8041 20.2341 30.6192 20.5803 30.4882 20.8224C30.0579 21.6258 29.6848 22.3284 29.3386 22.9907C29.1503 23.3504 28.8612 23.8882 28.6999 24.1841C28.5385 24.4799 28.2427 25.0312 28.0444 25.4111C27.8461 25.791 27.6041 26.2448 27.5066 26.4196C27.4091 26.5944 27.1671 27.0482 26.9688 27.4281C26.3234 28.6585 25.3251 30.5343 25.2209 30.7057C25.1267 30.8637 24.9452 31.2134 24.7368 31.6235L24.5419 32L22.8242 31.9933L21.1065 31.9832L20.9989 31.7143C20.6964 30.9478 20.0443 29.3207 19.8258 28.7896C19.5334 28.0735 18.9283 26.5608 18.3266 25.0413C18.088 24.4396 17.8224 23.7706 17.735 23.5521C17.6476 23.3369 17.567 23.1688 17.5535 23.1823C17.5367 23.1991 17.3384 23.6159 17.1098 24.1168C16.8779 24.6144 16.6224 25.1724 16.535 25.3539L16.3838 25.68L3.02223 25.6632L2.52138 24.9573C2.24575 24.5673 1.87599 24.0462 1.69448 23.7975C1.51633 23.5487 1.24741 23.1722 1.09951 22.9604C0.954974 22.752 0.669255 22.3587 0.470933 22.0864C-0.0332755 21.4073 -0.0231912 21.4241 0.0171454 21.2964C0.0373138 21.2392 0.282695 20.5702 0.568413 19.8139C0.85077 19.0541 1.10288 18.3751 1.12977 18.3011C1.29111 17.8574 1.56002 17.138 1.75835 16.6203C1.83566 16.4186 1.91969 16.19 1.94658 16.116C1.97347 16.042 2.02726 15.9042 2.06087 15.8134C2.09448 15.7193 2.18524 15.4773 2.25919 15.2756C2.39365 14.9024 2.63903 14.2334 2.96509 13.3594C3.1903 12.7509 3.56341 11.7424 3.98359 10.6028C4.16846 10.1019 4.39368 9.50355 4.48443 9.26823C4.57519 9.03291 4.64914 8.83121 4.64914 8.82112C4.64914 8.79759 4.9752 7.90674 5.04915 7.72857C5.08612 7.64453 5.17016 7.41929 5.23738 7.22432C5.30797 7.02934 5.38193 6.81755 5.40882 6.75368C5.49621 6.51836 5.61722 6.19228 5.74159 5.84602C5.81218 5.65105 5.87941 5.48296 5.89286 5.46615C5.90294 5.45271 10.3501 5.44598 15.7753 5.44934L25.6377 5.45943L25.1536 5.84938C24.8847 6.06117 24.5755 6.30321 24.4645 6.38726C24.3536 6.46794 24.0276 6.7167 23.7418 6.94194C23.4561 7.16381 23.167 7.38232 23.1032 7.42602C23.0393 7.46972 22.9721 7.52687 22.9519 7.5504C22.9351 7.57393 22.7973 7.68151 22.6494 7.79581C22.3469 8.02776 21.8191 8.43453 21.6275 8.5858C21.5569 8.63959 21.4393 8.73036 21.3687 8.78751C21.2981 8.84129 21.1031 8.99593 20.9351 9.12368C20.7704 9.25478 20.4208 9.52372 20.162 9.72206C19.7149 10.0582 19.3082 10.3776 18.4846 11.023C17.8762 11.5038 17.3081 11.9273 17.2981 11.9172C17.2913 11.9105 17.4628 11.3626 17.6779 10.7003C17.893 10.0347 18.0745 9.46993 18.0846 9.44303C18.0981 9.39933 17.5939 9.39261 13.6846 9.40269C11.2576 9.40606 9.26433 9.42287 9.25089 9.43631C9.23744 9.44976 9.13996 9.69516 9.03576 9.98091C8.93155 10.2667 8.73995 10.7877 8.60886 11.1407C8.48113 11.4903 8.30634 11.9509 8.22566 12.1593C8.14163 12.3677 7.95675 12.8686 7.80885 13.2686C7.29456 14.6806 6.97522 15.5512 6.79371 16.032C6.68951 16.3009 6.50127 16.8051 6.37017 17.1581C6.11135 17.8574 5.49957 19.5046 5.1836 20.345L4.98528 20.8795L5.09285 21.0342C5.14999 21.1216 5.28781 21.3098 5.39537 21.451L5.59369 21.7132H13.3114L13.3484 21.6359C13.3686 21.5956 13.5972 21.1148 13.856 20.5702C14.1115 20.0256 14.4678 19.276 14.6493 18.9062C15.0123 18.1565 15.0863 17.9952 15.3384 17.4472L15.5165 17.0674L15.4358 16.9934C15.298 16.869 13.3215 15.2789 12.1081 14.3209C11.2644 13.6519 11.0896 13.514 10.9854 13.4266L10.8845 13.3426H21.762L21.846 13.5309C21.8897 13.6351 21.9872 13.8872 22.0578 14.0923C22.1317 14.3007 22.4712 15.2386 22.8175 16.1832C23.1637 17.1245 23.5267 18.1229 23.6276 18.4019C23.92 19.2054 23.8494 19.1852 24.1855 18.5835C24.4948 18.0288 25.3049 16.5194 25.8091 15.5613C25.9772 15.2386 26.2864 14.6537 26.4948 14.2671C26.7066 13.8771 27.0058 13.3191 27.1637 13.0232C27.3217 12.7274 27.4932 12.408 27.5436 12.3173C27.594 12.2232 27.8192 11.7996 28.0444 11.376C28.2696 10.9491 28.4982 10.5322 28.552 10.4415C28.6058 10.3541 28.6495 10.2734 28.6495 10.2667C28.6495 10.2498 29.073 9.46321 29.5604 8.569C29.668 8.37402 29.7419 8.20593 29.7285 8.18913C29.6949 8.15551 28.7604 7.73866 28.2159 7.51342C27.9839 7.4193 27.7923 7.32517 27.789 7.30836C27.7789 7.27474 27.8562 7.21423 28.7335 6.59232C29.0293 6.38053 29.3318 6.16538 29.4058 6.1116C29.4797 6.06117 29.7251 5.883 29.9537 5.72164C30.1823 5.56028 30.468 5.34849 30.5924 5.25773C30.8142 5.08964 31.2781 4.76019 31.7016 4.46773C32.0109 4.25258 32.0209 4.24922 32.4781 3.91305C33.0294 3.51301 33.0865 3.46931 33.7016 3.03901C34.3336 2.59526 34.6395 2.38011 34.8075 2.25573C34.9252 2.16833 35.2613 1.92965 35.5639 1.7145C35.6412 1.66071 36.1555 1.29429 36.7067 0.897612C37.7084 0.181572 37.9639 0.0033994 37.9941 3.77044e-05C38.0042 -0.00332399 38.0009 0.218545 37.9874 0.490842Z" fill="var(--fill-0, #F0F0E8)"/>
<path d="M35.7252 2.6457C35.5033 2.80706 35.2546 2.98187 35.1739 3.03901C34.9689 3.18021 34.858 3.26089 34.5655 3.47603C34.4277 3.58025 34.1823 3.75169 34.0243 3.85927C33.863 3.96684 33.6983 4.08786 33.6546 4.1282C33.6109 4.16854 33.5067 4.2425 33.4226 4.28956C33.3386 4.33999 33.1974 4.44084 33.1033 4.51816C33.0126 4.59548 32.831 4.72995 32.6999 4.81735C32.5722 4.90475 32.4041 5.02241 32.3302 5.0762C32.1857 5.18377 32.1285 5.22411 31.6546 5.5502C31.4865 5.66786 31.2209 5.85611 31.0663 5.97377C30.9117 6.08807 30.4982 6.38726 30.1453 6.63939C29.7957 6.88815 29.5033 7.1033 29.4999 7.11675C29.4932 7.13019 29.6444 7.20751 29.836 7.28819C30.5957 7.61764 30.8512 7.7353 30.8781 7.75883C30.9117 7.78909 30.831 7.97734 30.6529 8.30006C30.5722 8.43789 30.3772 8.80768 30.2125 9.12368C29.8629 9.79938 29.389 10.6902 29.3554 10.7373C29.3419 10.7541 29.2041 11.013 29.0528 11.3088C28.8982 11.6046 28.6797 12.0215 28.5654 12.2332C28.357 12.6165 27.9335 13.4065 27.7251 13.7964C27.399 14.4116 27.2948 14.5999 27.1301 14.9058C26.9217 15.2857 26.3503 16.3446 25.9099 17.1749C25.7452 17.4808 25.5435 17.8574 25.4562 18.0154C25.3688 18.1734 25.194 18.4961 25.0696 18.7381C24.9452 18.9768 24.8309 19.1886 24.8141 19.2088C24.7671 19.2726 23.8091 21.1148 23.8091 21.1451C23.8091 21.1619 23.7956 21.1754 23.7755 21.1754C23.7586 21.1754 23.7418 21.1585 23.7418 21.1384C23.7418 21.1182 23.6813 20.9501 23.6107 20.7619C23.4729 20.4055 22.8712 18.7852 22.5418 17.8809C22.0107 16.4219 21.4527 14.9394 21.4225 14.9092C21.4023 14.889 21.3519 14.9596 21.2847 15.1109C21.2275 15.2386 21.0359 15.6521 20.8611 16.032C20.3737 17.0741 20.1788 17.5212 20.1788 17.5817C20.1788 17.6489 20.5149 18.5398 20.9015 19.4945C21.5132 21.0073 21.725 21.5451 21.9032 22.0158C22.0074 22.2847 22.1822 22.7285 22.2964 23.0075C22.4107 23.2831 22.6292 23.8445 22.7838 24.2513C23.0494 24.9539 23.1973 25.3338 23.3217 25.6262L23.3755 25.754L23.5133 25.5254C23.5872 25.3976 23.6981 25.1959 23.7553 25.0749C23.8158 24.9539 23.9469 24.7119 24.0444 24.537C24.1418 24.3622 24.3099 24.0597 24.4141 23.8647C24.6629 23.4109 26.1284 20.7316 26.3133 20.4022C26.9688 19.2188 27.9369 17.454 28.1621 17.0237C28.2864 16.7816 28.4478 16.4892 28.515 16.3681C28.5822 16.2471 28.6864 16.0656 28.7402 15.9647C28.7974 15.8639 28.8713 15.726 28.9083 15.6622C28.9453 15.5983 29.0461 15.4067 29.1369 15.242C29.3789 14.7881 29.8159 13.9948 29.9604 13.746C30.0276 13.625 30.2092 13.2922 30.3638 13.0064C30.5184 12.7207 30.7167 12.3475 30.8108 12.1828C31.1033 11.6584 31.5067 10.9188 31.6983 10.5524C31.8025 10.3574 31.8966 10.1826 31.91 10.1658C31.9235 10.1456 32.0378 9.94393 32.1621 9.71198C32.2865 9.48002 32.4848 9.12368 32.5991 8.92198C32.7134 8.71691 32.868 8.43789 32.942 8.30006C33.2176 7.779 33.742 6.82764 33.91 6.53518C34.0075 6.36709 34.1084 6.18556 34.1353 6.13177C34.1622 6.07462 34.2428 5.92335 34.3134 5.7956C34.384 5.6645 34.5218 5.41573 34.6193 5.23756C34.7168 5.05939 34.9386 4.65263 35.1168 4.33663C35.2949 4.02063 35.4395 3.75505 35.4395 3.74833C35.4395 3.74161 35.584 3.47603 35.7622 3.15331C36.105 2.53476 36.1958 2.34987 36.1555 2.34987C36.1386 2.34987 35.9471 2.48433 35.7252 2.6457Z" fill="#111111"/>
<path d="M36.8916 2.89446C36.8345 2.99195 36.7 3.23735 36.5891 3.44241C36.4781 3.64412 36.3168 3.93994 36.2294 4.09794C36.142 4.25594 35.9672 4.57194 35.8428 4.8039C35.7185 5.03586 35.5672 5.30479 35.5101 5.40564C35.4496 5.50649 35.3386 5.71156 35.2647 5.85947C35.1907 6.01075 35.1033 6.16875 35.0697 6.21581C35.0361 6.26287 34.8983 6.51164 34.7605 6.77049C34.6227 7.02934 34.4479 7.34534 34.3739 7.47645C34.2294 7.72521 33.8596 8.39755 33.3285 9.3758C33.1504 9.69853 32.9453 10.0784 32.868 10.2162C32.7907 10.3541 32.5218 10.8381 32.273 11.292C32.0243 11.7458 31.7856 12.1761 31.7453 12.2501C31.7016 12.324 31.5537 12.5963 31.4159 12.8552C31.2747 13.114 31.0999 13.4401 31.0192 13.5779C30.831 13.9107 30.5419 14.4385 30.3638 14.7713C30.0781 15.2991 29.6848 16.0151 29.6579 16.0488C29.6444 16.0656 29.5671 16.2101 29.4898 16.3681C29.4091 16.5261 29.2209 16.8724 29.0696 17.1413C28.9184 17.4103 28.6528 17.8943 28.4814 18.2171C28.31 18.5398 28.0377 19.0407 27.8763 19.3264C27.5873 19.8374 27.4965 20.0055 26.5318 21.7636C26.2696 22.2444 25.9368 22.8495 25.7923 23.1083C25.2242 24.1404 24.7435 25.0211 24.4141 25.6296C24.2225 25.9792 23.9502 26.4801 23.8057 26.739C23.6645 26.9978 23.483 27.3373 23.4091 27.492C23.3317 27.6433 23.2612 27.7643 23.2544 27.7609C23.2477 27.7542 23.1805 27.5794 23.1032 27.3777C23.0259 27.1726 22.8981 26.8398 22.8175 26.6381C22.7368 26.433 22.6057 26.0935 22.5217 25.8817C22.3334 25.401 21.9435 24.4093 21.5737 23.4781C21.4191 23.0882 21.2376 22.6276 21.1704 22.4528C21.1031 22.278 20.8779 21.7166 20.6762 21.209C20.4712 20.7014 20.2258 20.0794 20.1283 19.8307C19.7788 18.9297 19.6611 18.6541 19.6376 18.6776C19.6241 18.6944 19.483 18.9902 19.3216 19.3399C19.1603 19.6895 18.972 20.103 18.9014 20.2542C18.8275 20.4055 18.7334 20.6207 18.6863 20.7282C18.6426 20.8358 18.4846 21.1854 18.3334 21.5048L18.0611 22.083L18.1787 22.3956C18.3602 22.8898 18.5787 23.4378 19.288 25.1926C19.9468 26.823 20.1451 27.3172 20.6931 28.6887C21.3687 30.3797 21.6712 31.1092 21.7048 31.1327C21.725 31.1495 22.2628 31.1562 22.8981 31.1495L24.0511 31.1428L24.1755 30.9075C24.2427 30.7763 24.4343 30.4133 24.5956 30.1006C24.7603 29.7846 24.9788 29.3779 25.0864 29.193C25.1906 29.0081 25.4192 28.5845 25.5906 28.2517C25.762 27.9189 25.9973 27.4718 26.1116 27.26C26.5452 26.4566 26.6494 26.2582 26.8007 25.9658C27.036 25.5153 27.2881 25.0379 27.5234 24.6043C27.6377 24.3925 27.799 24.0899 27.8763 23.9319C27.957 23.7739 28.1217 23.4579 28.2461 23.226C28.4915 22.7688 28.6394 22.4864 29.1369 21.5451C29.5503 20.7585 29.9133 20.0828 30.1789 19.6122C30.2932 19.4071 30.6192 18.8121 30.9016 18.2843C31.184 17.7565 31.6075 16.9699 31.8428 16.5362C32.0781 16.1026 32.4411 15.4201 32.6495 15.0234C32.8579 14.6268 33.0764 14.2099 33.1369 14.099C33.1974 13.988 33.5672 13.2922 33.9571 12.5526C34.3504 11.813 34.7302 11.1104 34.8008 10.9894C34.868 10.8684 34.9722 10.6801 35.0294 10.5692C35.0865 10.4583 35.1538 10.3372 35.1806 10.3036C35.2277 10.2398 35.2311 10.2398 35.342 10.307C35.4059 10.344 35.7084 10.5289 36.0176 10.7171C36.3269 10.902 36.5857 11.0567 36.5958 11.0567C36.6059 11.0567 36.616 10.9558 36.616 10.8281C36.616 10.7037 36.6395 10.2398 36.6664 9.79601C36.6933 9.35227 36.7302 8.63959 36.7504 8.21602C36.7672 7.78908 36.7941 7.31509 36.8008 7.15709C36.8109 6.99909 36.8513 6.24943 36.8849 5.49305C36.9218 4.7333 36.9689 3.80548 36.9891 3.42897C37.0059 3.05246 37.016 2.73982 37.0092 2.72973C36.9992 2.72301 36.9454 2.79697 36.8916 2.89446Z" fill="var(--fill-0, #F0F0E8)"/>
<path d="M6.46765 6.40743C6.42395 6.50156 6.17521 7.16381 5.98361 7.69496C5.92983 7.85296 5.83235 8.10845 5.77184 8.26645C5.671 8.53538 5.25419 9.65483 4.83065 10.8045C4.72645 11.0802 4.60544 11.4029 4.56174 11.5206C4.51468 11.6349 4.36342 12.0416 4.22224 12.4282C3.92644 13.2317 3.76173 13.6754 3.47265 14.452C3.25416 15.0369 3.16004 15.2924 2.85752 16.116C2.75667 16.3917 2.60205 16.8018 2.51465 17.0237C2.43062 17.2455 2.22221 17.7969 2.05414 18.2507C1.88944 18.7045 1.67094 19.2928 1.56674 19.5617C1.28775 20.2979 0.951607 21.2359 0.951607 21.2796C0.951607 21.2997 1.09279 21.5082 1.26422 21.7401C1.43229 21.9754 1.79532 22.4831 2.07095 22.873C2.68945 23.7538 2.85079 23.9824 3.18021 24.4396L3.4424 24.806L3.93652 24.8093C5.72814 24.8261 15.6174 24.8362 15.7316 24.8228C15.856 24.806 15.8762 24.7892 15.9199 24.6749C15.9501 24.6043 16.1249 24.2177 16.3132 23.8143C16.498 23.4142 16.7132 22.947 16.7905 22.7789C16.9384 22.4427 17.2342 21.804 17.6913 20.8392C17.8527 20.4963 18.1518 19.8542 18.3569 19.4105C18.5586 18.9667 18.814 18.4221 18.9182 18.2003C19.0258 17.9784 19.1838 17.6389 19.2712 17.4439C19.3586 17.2489 19.5939 16.7413 19.7922 16.3177C19.9905 15.8908 20.209 15.4168 20.2796 15.2588C20.3502 15.1008 20.4846 14.8083 20.5788 14.6066C20.6729 14.4083 20.7502 14.2368 20.7502 14.2301C20.7502 14.2234 19.0897 14.2166 17.0628 14.2166L13.3719 14.22L13.4593 14.294C13.5602 14.378 14.9014 15.4638 15.8728 16.2437C16.2359 16.5362 16.535 16.7951 16.5417 16.8186C16.5518 16.8657 16.0476 17.9548 15.4291 19.2256C15.2375 19.6222 15.0459 20.0223 15.0022 20.1164C14.9619 20.2072 14.814 20.5198 14.6762 20.8056C14.535 21.0913 14.3199 21.5519 14.1921 21.8309C14.0644 22.1065 13.9333 22.3889 13.903 22.4528L13.8425 22.5705L5.17015 22.5873L5.00544 22.362C4.53485 21.7166 4.04409 21.0106 4.04409 20.977C4.04409 20.9568 4.08106 20.8459 4.12476 20.7316C4.19871 20.5467 4.82393 18.8659 5.17688 17.9145C5.24074 17.7397 5.52646 16.9732 5.80882 16.2169C6.09454 15.4571 6.46093 14.4688 6.62563 14.0149C6.7937 13.5611 7.06598 12.8215 7.23741 12.3677C7.40548 11.9139 7.6643 11.218 7.80884 10.8213C7.95338 10.4247 8.13154 9.94729 8.20549 9.7624C8.27944 9.57751 8.40381 9.2447 8.48112 9.02283C8.5618 8.80096 8.63911 8.59926 8.65928 8.57572C8.68281 8.54547 9.7887 8.53538 13.9837 8.53538H19.2779L19.2577 8.62615C19.2342 8.727 19.0124 9.42959 18.9787 9.50355C18.9485 9.57751 19.0426 9.51364 19.6073 9.07325C19.893 8.84802 20.2124 8.60262 20.3132 8.5253C20.4141 8.45134 20.6729 8.24964 20.8847 8.08156C21.0964 7.91347 21.4998 7.60083 21.7754 7.39241C22.0544 7.18062 22.4174 6.89488 22.5822 6.76041C22.7502 6.62258 22.9149 6.49484 22.9553 6.47803C22.9922 6.46122 23.0393 6.41752 23.0628 6.38054C23.1032 6.31667 22.9922 6.31667 14.8073 6.31667H6.50799L6.46765 6.40743Z" fill="var(--fill-0, #F0F0E8)"/>
</g>
</svg>
