<svg preserveAspectRatio="none" width="100%" height="100%" overflow="visible" style="display: block;" viewBox="0 0 115 96" fill="none" xmlns="http://www.w3.org/2000/svg">
<g id="logo-mark">
<path d="M114.962 1.47253C114.921 2.2995 114.819 4.34679 114.738 6.04108C114.647 7.73537 114.514 10.6399 114.423 12.4955C114.341 14.3512 114.25 16.1665 114.219 16.5296C114.189 16.8926 114.077 18.9802 113.965 21.1687C113.853 23.3572 113.69 26.534 113.599 28.2283C113.517 29.9226 113.385 32.7262 113.314 34.4608C113.243 36.1955 113.161 37.6376 113.131 37.6578C113.1 37.6881 112.49 37.3452 111.768 36.8913C109.52 35.4794 108.482 34.8441 107.983 34.5617L107.516 34.2995L107.119 35.0155C106.122 36.8207 104.504 39.8059 103.741 41.238C103.284 42.0952 102.541 43.4769 102.094 44.314C101.636 45.1409 100.852 46.5932 100.354 47.5412C99.8454 48.4791 99.174 49.7297 98.8586 50.3146C98.5433 50.8995 97.7803 52.3013 97.1598 53.441C96.5495 54.5806 95.5932 56.3253 95.0439 57.3237C94.5047 58.3221 93.813 59.5929 93.518 60.1475C93.223 60.7022 92.6635 61.741 92.2668 62.4671C90.9647 64.8774 89.8355 66.9852 88.7877 68.972C88.2181 70.0511 87.3432 71.6647 86.8549 72.5522C86.3666 73.4397 85.4715 75.0936 84.8713 76.2332C84.2711 77.3729 83.5387 78.7343 83.2437 79.2588C82.9486 79.7832 82.2162 81.1447 81.616 82.2843C79.6629 85.9754 76.6416 91.6029 76.3263 92.1172C76.0414 92.5912 75.4921 93.6401 74.8614 94.8705L74.2714 96L69.0732 95.9798L63.875 95.9496L63.5494 95.1428C62.6339 92.8434 60.6604 87.9622 59.9992 86.3687C59.1142 84.2206 57.2831 79.6823 55.4622 75.1239C54.7399 73.3187 53.9363 71.3117 53.6718 70.6562C53.4073 70.0108 53.1632 69.5065 53.1225 69.5468C53.0716 69.5973 52.4714 70.8478 51.7797 72.3505C51.0778 73.8431 50.3047 75.5172 50.0402 76.0618L49.5824 77.0401L9.14622 76.9896L7.63049 74.8718C6.79634 73.7019 5.67735 72.1387 5.12803 71.3924C4.58888 70.6461 3.77507 69.5166 3.32748 68.8812C2.89005 68.2559 2.02538 67.076 1.42519 66.2591C-0.100702 64.2219 -0.070184 64.2723 0.0518875 63.8891C0.112923 63.7177 0.855523 61.7107 1.7202 59.4416C2.5747 57.1624 3.33765 55.1252 3.41903 54.9033C3.90732 53.5721 4.72112 51.4139 5.32131 49.8608C5.55528 49.2557 5.8096 48.5699 5.89098 48.348C5.97236 48.1261 6.13512 47.7126 6.23684 47.4403C6.33857 47.158 6.61323 46.4318 6.83703 45.8267C7.24394 44.7073 7.98654 42.7003 8.97328 40.0782C9.65485 38.2528 10.784 35.2273 12.0556 31.8085C12.6151 30.3058 13.2967 28.5106 13.5713 27.8047C13.846 27.0987 14.0698 26.4936 14.0698 26.4634C14.0698 26.3928 15.0565 23.7202 15.2803 23.1857C15.3922 22.9336 15.6465 22.2579 15.85 21.673C16.0636 21.088 16.2874 20.4527 16.3688 20.261C16.6333 19.5551 16.9995 18.5768 17.3759 17.5381C17.5895 16.9531 17.793 16.4489 17.8336 16.3985C17.8642 16.3581 31.3226 16.3379 47.7412 16.348L77.5877 16.3783L76.1228 17.5482C75.309 18.1835 74.3731 18.9096 74.0374 19.1618C73.7017 19.4038 72.715 20.1501 71.8503 20.8258C70.9856 21.4914 70.1108 22.147 69.9175 22.2781C69.7242 22.4092 69.5208 22.5806 69.4597 22.6512C69.4089 22.7218 68.9918 23.0445 68.5442 23.3874C67.6287 24.0833 66.0316 25.3036 65.4517 25.7574C65.2381 25.9188 64.8821 26.1911 64.6684 26.3625C64.4548 26.5239 63.8648 26.9878 63.3562 27.371C62.8577 27.7643 61.7998 28.5711 61.0165 29.1662C59.6635 30.1747 58.4326 31.1328 55.9403 33.0691C54.0991 34.5113 52.3799 35.782 52.3494 35.7517C52.329 35.7316 52.8478 34.0877 53.4989 32.1009C54.1499 30.1041 54.6993 28.4098 54.7298 28.3291C54.7705 28.198 53.2446 28.1778 41.4138 28.2081C34.0692 28.2182 28.0368 28.2686 27.9961 28.3089C27.9554 28.3493 27.6604 29.0855 27.3451 29.9427C27.0297 30.8 26.4499 32.3631 26.0531 33.4221C25.6666 34.4709 25.1376 35.8526 24.8935 36.4779C24.6391 37.1031 24.0796 38.6058 23.632 39.8059C22.0756 44.0417 21.1092 46.6537 20.5599 48.0959C20.2446 48.9027 19.6749 50.4154 19.2782 51.4744C18.4949 53.5721 16.6434 58.5138 15.6872 61.035L15.087 62.6386L15.4126 63.1025C15.5855 63.3647 16.0026 63.9294 16.3281 64.353L16.9283 65.1397H40.2846L40.3965 64.9077C40.4576 64.7867 41.1493 63.3445 41.9326 61.7107C42.7057 60.0769 43.784 57.828 44.3334 56.7186C45.432 54.4696 45.6558 53.9856 46.4187 52.3417L46.9579 51.2021L46.7137 50.9802C46.2967 50.607 40.3152 45.8368 36.6428 42.9626C34.0895 40.9556 33.5605 40.5421 33.2452 40.2799L32.94 40.0278H65.8586L66.1129 40.5926C66.2452 40.9052 66.5402 41.6616 66.7538 42.2768C66.9776 42.902 68.0051 45.7158 69.0528 48.5497C70.1006 51.3735 71.1993 54.3688 71.5044 55.2058C72.3895 57.6162 72.1758 57.5557 73.1931 55.7504C74.129 54.0864 76.5806 49.5582 78.1065 46.684C78.6151 45.7158 79.551 43.961 80.1817 42.8012C80.8226 41.6313 81.7279 39.9572 82.2061 39.0697C82.6842 38.1822 83.203 37.2241 83.3556 36.9519C83.5081 36.6695 84.1897 35.3988 84.8713 34.128C85.5528 32.8472 86.2446 31.5967 86.4073 31.3244C86.5701 31.0622 86.7023 30.8201 86.7023 30.8C86.7023 30.7495 87.9841 28.3896 89.4591 25.707C89.7847 25.1221 90.0085 24.6178 89.9678 24.5674C89.866 24.4665 87.038 23.216 85.3901 22.5403C84.6882 22.2579 84.1083 21.9755 84.0982 21.9251C84.0676 21.8242 84.3016 21.6427 86.9567 19.777C87.8519 19.1416 88.7674 18.4962 88.9912 18.3348C89.215 18.1835 89.9576 17.649 90.6493 17.1649C91.3411 16.6808 92.2057 16.0455 92.5821 15.7732C93.2535 15.2689 94.6573 14.2806 95.9391 13.4032C96.875 12.7577 96.9055 12.7477 98.289 11.7391C99.9573 10.539 100.13 10.4079 101.992 9.11703C103.904 7.78579 104.83 7.14034 105.339 6.76719C105.695 6.50498 106.712 5.78895 107.627 5.1435C107.861 4.98214 109.418 3.88288 111.086 2.69284C114.118 0.544715 114.891 0.0101982 114.982 0.000113113C115.013 -0.00997197 115.003 0.655635 114.962 1.47253Z" fill="var(--fill-0, #F0F0E8)"/>
<path d="M108.116 7.93709C107.444 8.42117 106.692 8.9456 106.447 9.11704C105.827 9.54062 105.491 9.78266 104.606 10.4281C104.189 10.7407 103.446 11.2551 102.968 11.5778C102.48 11.9005 101.982 12.2636 101.849 12.3846C101.717 12.5056 101.402 12.7275 101.147 12.8687C100.893 13.02 100.466 13.3225 100.181 13.5545C99.9064 13.7864 99.3571 14.1898 98.9604 14.4521C98.5738 14.7143 98.0652 15.0672 97.8414 15.2286C97.404 15.5513 97.231 15.6723 95.7967 16.6506C95.288 17.0036 94.4844 17.5683 94.0165 17.9213C93.5485 18.2642 92.2973 19.1618 91.2292 19.9182C90.1712 20.6645 89.2862 21.3099 89.276 21.3502C89.2557 21.3906 89.7134 21.6225 90.2933 21.8646C92.5923 22.8529 93.3654 23.2059 93.4468 23.2765C93.5485 23.3673 93.3044 23.932 92.7652 24.9002C92.5211 25.3137 91.9311 26.423 91.4326 27.371C90.3747 29.3981 88.9403 32.0707 88.8386 32.2119C88.7979 32.2623 88.3808 33.0389 87.9231 33.9263C87.4551 34.8138 86.7939 36.0644 86.448 36.6997C85.8173 37.8494 84.5356 40.2194 83.9049 41.3893C82.9181 43.2349 82.6028 43.7996 82.1043 44.7174C81.4736 45.857 79.7443 49.0338 78.4117 51.5248C77.9132 52.4425 77.3028 53.5721 77.0383 54.0461C76.7739 54.5201 76.2449 55.4882 75.8685 56.2144C75.4921 56.9304 75.1462 57.5658 75.0954 57.6263C74.953 57.8179 72.0538 63.3445 72.0538 63.4353C72.0538 63.4857 72.0131 63.5261 71.952 63.5261C71.9012 63.5261 71.8503 63.4756 71.8503 63.4151C71.8503 63.3546 71.6672 62.8504 71.4536 62.2856C71.0365 61.2166 69.2156 56.3556 68.2187 53.6427C66.6114 49.2657 64.9227 44.8182 64.8312 44.7275C64.7702 44.667 64.6176 44.8787 64.4141 45.3326C64.2412 45.7158 63.6613 46.9563 63.1324 48.0959C61.6573 51.2223 61.0673 52.5636 61.0673 52.7451C61.0673 52.9468 62.0846 55.6193 63.2544 58.4835C65.1059 63.0218 65.7467 64.6354 66.2859 66.0473C66.6012 66.8541 67.1302 68.1854 67.4761 69.0224C67.8219 69.8494 68.4832 71.5336 68.9511 72.7539C69.7547 74.8617 70.2023 76.0013 70.5787 76.8787L70.7415 77.2619L71.1586 76.5761C71.3824 76.1929 71.7181 75.5878 71.891 75.2247C72.0741 74.8617 72.4708 74.1356 72.7658 73.6111C73.0609 73.0867 73.5695 72.1791 73.8848 71.5941C74.6376 70.2326 79.0729 62.1948 79.6324 61.2065C81.616 57.6565 84.5457 52.3619 85.2273 51.071C85.6037 50.3449 86.092 49.4675 86.2954 49.1044C86.4989 48.7413 86.8142 48.1967 86.977 47.8942C87.1499 47.5916 87.3737 47.1781 87.4856 46.9865C87.5975 46.7949 87.9027 46.2201 88.1774 45.7259C88.9098 44.3644 90.2322 41.9843 90.6697 41.238C90.8731 40.875 91.4224 39.8765 91.8904 39.0193C92.3583 38.1621 92.9585 37.0426 93.2433 36.5485C94.1284 34.9752 95.3491 32.7565 95.9289 31.6572C96.2443 31.0723 96.5291 30.5478 96.5698 30.4974C96.6105 30.4369 96.9564 29.8318 97.3327 29.1359C97.7091 28.4401 98.3093 27.371 98.6552 26.7659C99.0011 26.1507 99.469 25.3137 99.6928 24.9002C100.527 23.337 102.114 20.4829 102.623 19.6055C102.918 19.1013 103.223 18.5567 103.304 18.3953C103.385 18.2239 103.63 17.77 103.843 17.3868C104.057 16.9935 104.474 16.2472 104.769 15.7127C105.064 15.1782 105.735 13.9579 106.274 13.0099C106.814 12.0619 107.251 11.2652 107.251 11.245C107.251 11.2248 107.688 10.4281 108.228 9.45993C109.265 7.60428 109.54 7.0496 109.418 7.0496C109.367 7.0496 108.787 7.453 108.116 7.93709Z" fill="#111111"/>
<path d="M111.646 8.68337C111.473 8.97584 111.066 9.71205 110.73 10.3272C110.394 10.9323 109.906 11.8198 109.642 12.2938C109.377 12.7678 108.848 13.7158 108.472 14.4117C108.095 15.1076 107.638 15.9144 107.465 16.2169C107.282 16.5195 106.946 17.1347 106.722 17.5784C106.498 18.0322 106.234 18.5062 106.132 18.6474C106.03 18.7886 105.613 19.5349 105.196 20.3115C104.779 21.088 104.25 22.036 104.026 22.4293C103.589 23.1756 102.47 25.1927 100.863 28.1274C100.323 29.0956 99.7029 30.2352 99.469 30.6487C99.235 31.0622 98.4212 32.5144 97.6684 33.8759C96.9156 35.2374 96.1934 36.5283 96.0713 36.7502C95.9391 36.972 95.4915 37.7889 95.0744 38.5655C94.6471 39.342 94.1182 40.3203 93.874 40.7338C93.3044 41.7322 92.4295 43.3155 91.8904 44.314C91.0257 45.8973 89.8355 48.0454 89.7541 48.1463C89.7134 48.1967 89.4795 48.6304 89.2455 49.1044C89.0013 49.5784 88.4317 50.6171 87.9739 51.4239C87.5161 52.2308 86.7125 53.683 86.1937 54.6512C85.6749 55.6193 84.8509 57.122 84.3626 57.9793C83.4878 59.5122 83.2131 60.0164 80.2936 65.2909C79.5001 66.7331 78.493 68.5484 78.0556 69.325C76.3364 72.4211 74.8817 75.0634 73.8848 76.8888C73.305 77.9376 72.481 79.4403 72.0436 80.2169C71.6163 80.9934 71.067 82.012 70.8432 82.4759C70.6092 82.9298 70.3956 83.2928 70.3753 83.2827C70.3549 83.2626 70.1515 82.7381 69.9175 82.133C69.6835 81.5178 69.297 80.5194 69.0528 79.9143C68.8087 79.2991 68.4119 78.2805 68.1576 77.6452C67.588 76.203 66.4079 73.2279 65.2889 70.4343C64.821 69.2645 64.2717 67.8828 64.0682 67.3584C63.8648 66.834 63.1832 65.1497 62.5728 63.6269C61.9523 62.1041 61.2097 60.2383 60.9147 59.492C59.8568 56.7892 59.5007 55.9622 59.4295 56.0328C59.3888 56.0833 58.9616 56.9707 58.4733 58.0196C57.985 59.0684 57.4153 60.3089 57.2017 60.7627C56.9779 61.2166 56.6931 61.862 56.5507 62.1847C56.4184 62.5075 55.9403 63.5563 55.4825 64.5144L54.6585 66.249L55.0146 67.1869C55.5639 68.6694 56.2251 70.3133 58.3716 75.5777C60.3654 80.469 60.9656 81.9515 62.6237 86.0662C64.6684 91.139 65.5839 93.3275 65.6857 93.3981C65.7467 93.4485 67.3743 93.4687 69.297 93.4485L72.7862 93.4283L73.1626 92.7224C73.366 92.329 73.9458 91.2399 74.4341 90.3019C74.9326 89.3539 75.5938 88.1336 75.9193 87.579C76.2347 87.0243 76.9264 85.7536 77.4452 84.7552C77.964 83.7567 78.6761 82.4154 79.022 81.78C80.3343 79.3697 80.6496 78.7747 81.1074 77.8973C81.8195 76.5459 82.5824 75.1138 83.2945 73.8128C83.6404 73.1775 84.1286 72.2698 84.3626 71.7958C84.6068 71.3218 85.1052 70.3738 85.4816 69.678C86.2242 68.3064 86.6718 67.4592 88.1774 64.6354C89.4286 62.2755 90.5272 60.2484 91.3309 58.8365C91.6767 58.2213 92.6635 56.4362 93.518 54.8529C94.3725 53.2695 95.6542 50.9096 96.3663 49.6086C97.0784 48.3077 98.177 46.2604 98.8077 45.0704C99.4385 43.8803 100.1 42.6298 100.283 42.297C100.466 41.9641 101.585 39.8765 102.765 37.6578C103.955 35.4391 105.105 33.3313 105.318 32.9682C105.522 32.6052 105.837 32.0404 106.01 31.7076C106.183 31.3748 106.386 31.0117 106.468 30.9109C106.61 30.7193 106.62 30.7193 106.956 30.921C107.149 31.0319 108.065 31.5866 109.001 32.1514C109.937 32.706 110.72 33.17 110.75 33.17C110.781 33.17 110.811 32.8674 110.811 32.4842C110.811 32.111 110.883 30.7193 110.964 29.388C111.045 28.0568 111.157 25.9188 111.218 24.6481C111.269 23.3673 111.351 21.9453 111.371 21.4713C111.401 20.9973 111.524 18.7483 111.625 16.4791C111.737 14.1999 111.88 11.4164 111.941 10.2869C111.991 9.15737 112.022 8.21946 112.002 8.1892C111.971 8.16903 111.808 8.39091 111.646 8.68337Z" fill="var(--fill-0, #F0F0E8)"/>
<path d="M19.5731 19.2223C19.4409 19.5047 18.6881 21.4914 18.1083 23.0849C17.9455 23.5589 17.6505 24.3253 17.4674 24.7993C17.1622 25.6062 15.9008 28.9645 14.6191 32.4136C14.3037 33.2406 13.9375 34.2087 13.8053 34.5617C13.6629 34.9046 13.2051 36.1249 12.7778 37.2847C11.8826 39.695 11.3842 41.0262 10.5093 43.3559C9.84812 45.1107 9.56328 45.8772 8.64774 48.348C8.34257 49.175 7.87462 50.4054 7.61014 51.071C7.35582 51.7366 6.72512 53.3906 6.21649 54.752C5.71803 56.1135 5.05681 57.8784 4.74146 58.6852C3.89713 60.8938 2.87986 63.7076 2.87986 63.8387C2.87986 63.8992 3.30711 64.5245 3.82592 65.2204C4.33455 65.9263 5.43319 67.4492 6.26735 68.619C8.13911 71.2613 8.6274 71.9471 9.62432 73.3187L10.4178 74.4179L11.9132 74.428C17.3352 74.4785 47.263 74.5087 47.6089 74.4684C47.9853 74.4179 48.0463 74.3675 48.1786 74.0246C48.2701 73.8128 48.7991 72.6531 49.3688 71.4428C49.9283 70.2427 50.5793 68.8409 50.8133 68.3366C51.2609 67.3281 52.1561 65.412 53.5396 62.5175C54.0278 61.4889 54.9332 59.5626 55.5537 58.2314C56.1641 56.9002 56.9372 55.2664 57.2526 54.6008C57.5781 53.9351 58.0562 52.9166 58.3207 52.3316C58.5852 51.7467 59.2973 50.2238 59.8975 48.9531C60.4976 47.6723 61.1589 46.2503 61.3725 45.7763C61.5861 45.3023 61.993 44.4249 62.2778 43.8198C62.5627 43.2248 62.7967 42.7104 62.7967 42.6903C62.7967 42.6701 57.7714 42.6499 51.6373 42.6499L40.4677 42.66L40.7322 42.8819C41.0374 43.134 45.0963 46.3915 48.0362 48.7312C49.1348 49.6086 50.0402 50.3852 50.0605 50.4558C50.091 50.597 48.5651 53.8645 46.6934 57.6767C46.1135 58.8667 45.5337 60.0669 45.4015 60.3493C45.2794 60.6216 44.8318 61.5595 44.4147 62.4167C43.9875 63.2739 43.3364 64.6556 42.9499 65.4926C42.5633 66.3196 42.1666 67.1668 42.075 67.3584L41.8919 67.7114L15.6465 67.7618L15.1481 67.0861C13.7239 65.1498 12.2387 63.0319 12.2387 62.931C12.2387 62.8705 12.3506 62.5377 12.4828 62.1948C12.7066 61.6401 14.5987 56.5976 15.6669 53.7435C15.8601 53.2191 16.7248 50.9197 17.5793 48.6506C18.444 46.3713 19.5528 43.4063 20.0513 42.0448C20.5599 40.6833 21.3839 38.4646 21.9027 37.1031C22.4113 35.7417 23.1946 33.654 23.632 32.464C24.0695 31.274 24.6086 29.8419 24.8324 29.2872C25.0562 28.7325 25.4326 27.7341 25.6666 27.0685C25.9107 26.4029 26.1447 25.7978 26.2057 25.7272C26.2769 25.6364 29.6237 25.6061 42.3191 25.6061H58.341L58.28 25.8784C58.2088 26.181 57.5374 28.2888 57.4357 28.5107C57.3441 28.7325 57.629 28.5409 59.338 27.2198C60.2026 26.5441 61.169 25.8079 61.4742 25.5759C61.7794 25.354 62.5627 24.7489 63.2036 24.2447C63.8444 23.7404 65.0651 22.8025 65.8993 22.1772C66.7436 21.5419 67.8423 20.6846 68.3407 20.2812C68.8494 19.8677 69.3478 19.4845 69.4699 19.4341C69.5818 19.3837 69.7242 19.2525 69.7954 19.1416C69.9175 18.95 69.5818 18.95 44.8114 18.95H19.6952L19.5731 19.2223Z" fill="var(--fill-0, #F0F0E8)"/>
</g>
</svg>
