<svg preserveAspectRatio="none" width="100%" height="100%" overflow="visible" style="display: block;" viewBox="0 0 48 48" fill="none" xmlns="http://www.w3.org/2000/svg">
<g id="play" opacity="0.85">
<rect width="48" height="48" rx="24" fill="var(--fill-0, #75E21C)"/>
<path id="Icon (Stroke)" d="M17.0262 12.233C17.9391 11.8178 18.9619 11.9957 19.8096 12.4662L19.9766 12.5634L20.0114 12.5857L20.045 12.6091L32.7453 21.722C33.6336 22.2393 34.4982 23.0508 34.5 24.2261C34.5016 25.3928 33.6443 26.2437 32.7558 26.8145L32.7569 26.8157L20.1726 35.3907L20.1216 35.4259L20.0671 35.4552C19.1538 35.9475 18.0316 36.2484 17.0297 35.727C15.9972 35.1896 15.6222 34.0634 15.5557 32.9745L15.5533 32.9394V32.9042L15.5 14.9562L15.5012 14.955C15.4829 13.7675 15.9822 12.7079 17.0262 12.233ZM18.0016 14.4219C17.9887 14.4277 17.9715 14.4359 17.9482 14.4793C17.9202 14.5314 17.8685 14.6653 17.874 14.9269L17.8751 14.9374V14.9492L17.9273 32.8492C17.9633 33.3883 18.0881 33.5563 18.1233 33.5932C18.1738 33.6026 18.4014 33.6239 18.912 33.3554L31.429 24.826L31.4615 24.8049C31.7931 24.5946 31.9764 24.4178 32.0669 24.2987C32.0859 24.2737 32.0958 24.2512 32.1051 24.2355C32.0994 24.2274 32.0939 24.2167 32.0854 24.2062C32.007 24.1089 31.8377 23.9544 31.5148 23.7726L31.458 23.741L18.7171 14.6C18.288 14.3418 18.0415 14.4038 18.0016 14.4219Z" fill="var(--fill-0, #111111)"/>
</g>
</svg>
