<svg preserveAspectRatio="none" width="100%" height="100%" overflow="visible" style="display: block;" viewBox="0 0 72 72" fill="none" xmlns="http://www.w3.org/2000/svg">
<g id="play-button" opacity="0.9">
<rect width="72" height="72" rx="36" fill="var(--fill-0, #75E21C)"/>
<path id="Icon (Stroke)" d="M27.7672 22.2718C28.8243 21.7874 30.0085 21.995 30.9901 22.5439L31.1834 22.6573L31.2237 22.6833L31.2626 22.7107L45.9683 33.3423C46.9968 33.9458 47.9979 34.8926 48 36.2638C48.0019 37.6249 47.0092 38.6176 45.9803 39.2836L45.9817 39.285L31.4104 49.2892L31.3513 49.3302L31.2882 49.3644C30.2307 49.9388 28.9314 50.2898 27.7712 49.6815C26.5757 49.0546 26.1415 47.7406 26.0645 46.4703L26.0618 46.4293V46.3883L26 25.4489L26.0013 25.4475C25.9802 24.0621 26.5583 22.8259 27.7672 22.2718ZM28.8965 24.8255C28.8817 24.8323 28.8618 24.8419 28.8348 24.8925C28.8024 24.9533 28.7425 25.1095 28.7488 25.4147L28.7502 25.427V25.4407L28.8106 46.324C28.8523 46.953 28.9967 47.149 29.0375 47.1921C29.0959 47.2031 29.3595 47.2279 29.9507 46.9146L44.4441 36.9637L44.4817 36.9391C44.8657 36.6937 45.0779 36.4874 45.1827 36.3485C45.2047 36.3193 45.2162 36.2931 45.227 36.2747C45.2203 36.2653 45.214 36.2528 45.2042 36.2405C45.1134 36.127 44.9173 35.9468 44.5435 35.7347L44.4777 35.6978L29.7251 25.0333C29.2282 24.7321 28.9428 24.8044 28.8965 24.8255Z" fill="var(--fill-0, #111111)"/>
</g>
</svg>
